<?xml version="1.0" encoding="UTF-8"?>
<!-- Generator: visioncortex VTracer 0.6.3 -->
<svg version="1.1" xmlns="http://www.w3.org/2000/svg" viewBox="0 0 4811 1117" width="240" height="60">
<path d="M0 0 C0.96 -0 1.92 -0 2.91 -0 C4.93 -0 6.95 -0 8.96 0 C12.02 0.01 15.08 0 18.14 -0 C20.12 -0 22.09 -0 24.06 0 C24.96 -0 25.87 -0 26.79 -0.01 C28.1 -0 28.1 -0 29.42 0 C30.17 0 30.92 0.01 31.69 0.01 C35.98 0.2 40.25 0.71 44.53 1.13 C44.53 50.3 44.53 99.47 44.53 150.13 C33.15 149.14 33.15 149.14 21.53 148.13 C15.21 147.94 8.92 147.79 2.59 147.82 C1.38 147.82 1.38 147.82 0.14 147.83 C-13.57 147.88 -26.96 148.64 -40.47 151.13 C-41.36 151.29 -42.25 151.45 -43.16 151.62 C-94.11 161.21 -140.36 187.22 -171.47 229.13 C-172.07 229.94 -172.07 229.94 -172.68 230.77 C-202.7 271.67 -207.79 316.57 -207.74 365.88 C-207.74 370.55 -207.75 375.23 -207.76 379.9 C-207.77 387.98 -207.77 396.05 -207.77 404.13 C-207.78 415.81 -207.79 427.5 -207.81 439.18 C-207.84 458.14 -207.86 477.11 -207.88 496.08 C-207.88 497.21 -207.88 498.34 -207.89 499.51 C-207.9 512.16 -207.91 524.82 -207.92 537.47 C-207.92 542.07 -207.92 546.67 -207.93 551.27 C-207.93 552.41 -207.93 553.55 -207.93 554.72 C-207.94 573.64 -207.97 592.56 -208 611.48 C-208.02 623.14 -208.03 634.8 -208.03 646.46 C-208.03 654.43 -208.04 662.4 -208.05 670.38 C-208.06 674.98 -208.07 679.58 -208.06 684.18 C-208.05 688.39 -208.06 692.6 -208.08 696.81 C-208.08 698.34 -208.08 699.86 -208.07 701.39 C-208.07 703.46 -208.08 705.53 -208.09 707.59 C-208.09 708.74 -208.09 709.9 -208.09 711.08 C-208.59 715.09 -209.96 717.87 -213.07 720.48 C-219.3 723.72 -225.17 723.69 -232.09 723.62 C-233.96 723.62 -233.96 723.62 -235.87 723.63 C-239.27 723.64 -242.67 723.62 -246.07 723.6 C-249.63 723.59 -253.2 723.59 -256.77 723.59 C-262.76 723.59 -268.76 723.57 -274.75 723.54 C-281.66 723.51 -288.57 723.5 -295.48 723.5 C-302.86 723.51 -310.25 723.49 -317.63 723.47 C-319.74 723.47 -321.86 723.47 -323.98 723.47 C-327.93 723.46 -331.89 723.44 -335.85 723.42 C-337.59 723.42 -337.59 723.42 -339.38 723.43 C-353.68 723.31 -353.68 723.31 -358.31 719.7 C-361.19 715.59 -362.59 713.44 -362.6 708.46 C-362.6 707.47 -362.6 706.48 -362.61 705.45 C-362.61 703.8 -362.61 703.8 -362.6 702.11 C-362.61 700.95 -362.61 699.78 -362.61 698.58 C-362.62 695.32 -362.62 692.05 -362.62 688.79 C-362.62 685.25 -362.62 681.71 -362.63 678.17 C-362.64 671.13 -362.64 664.1 -362.64 657.06 C-362.65 648.64 -362.65 640.22 -362.66 631.8 C-362.68 611.44 -362.69 591.09 -362.7 570.73 C-362.71 561.1 -362.71 551.48 -362.72 541.85 C-362.74 508.92 -362.75 475.98 -362.76 443.05 C-362.76 440.98 -362.76 438.91 -362.76 436.84 C-362.76 435.81 -362.76 434.79 -362.76 433.73 C-362.76 428.53 -362.76 423.34 -362.76 418.14 C-362.76 417.11 -362.76 416.08 -362.76 415.01 C-362.77 381.56 -362.8 348.11 -362.83 314.66 C-362.86 279.31 -362.88 243.96 -362.89 208.61 C-362.89 204.73 -362.89 200.86 -362.89 196.98 C-362.89 196.02 -362.89 195.07 -362.89 194.08 C-362.89 178.7 -362.91 163.31 -362.93 147.92 C-362.95 132.46 -362.95 117 -362.94 101.54 C-362.94 92.35 -362.94 83.16 -362.96 73.97 C-362.98 67.84 -362.98 61.71 -362.96 55.57 C-362.96 52.07 -362.96 48.57 -362.97 45.08 C-362.99 41.31 -362.98 37.55 -362.96 33.78 C-362.97 32.69 -362.98 31.6 -362.99 30.48 C-362.94 24.15 -362.25 20.28 -358.47 15.13 C-353.01 10.86 -346.19 11.71 -339.58 11.74 C-338.28 11.74 -336.99 11.73 -335.65 11.73 C-332.1 11.72 -328.55 11.72 -325 11.73 C-321.28 11.74 -317.56 11.73 -313.84 11.73 C-307.59 11.72 -301.34 11.73 -295.09 11.74 C-287.88 11.76 -280.66 11.75 -273.45 11.74 C-267.25 11.72 -261.04 11.72 -254.84 11.73 C-251.14 11.73 -247.44 11.73 -243.74 11.72 C-239.61 11.71 -235.48 11.73 -231.36 11.74 C-229.52 11.74 -229.52 11.74 -227.65 11.73 C-220.86 11.78 -216.06 12.16 -210.66 16.63 C-208.42 19.46 -208.34 22.21 -208.31 25.67 C-208.3 27.06 -208.3 27.06 -208.28 28.49 C-208.28 29.5 -208.27 30.52 -208.26 31.57 C-208.25 32.64 -208.24 33.72 -208.23 34.82 C-208.2 38.38 -208.18 41.93 -208.15 45.49 C-208.13 47.95 -208.11 50.41 -208.09 52.87 C-208.03 59.36 -207.98 65.85 -207.94 72.33 C-207.89 78.95 -207.83 85.56 -207.78 92.18 C-207.67 105.16 -207.57 118.15 -207.47 131.13 C-206.92 130.03 -206.38 128.93 -205.82 127.79 C-205.09 126.34 -204.37 124.88 -203.64 123.42 C-203.11 122.33 -203.11 122.33 -202.56 121.22 C-200.08 116.23 -197.42 111.53 -194.16 107.01 C-193.69 106.35 -193.23 105.7 -192.76 105.03 C-191.34 103.05 -189.91 101.09 -188.47 99.13 C-188.03 98.53 -187.58 97.93 -187.13 97.31 C-175.66 81.89 -162.24 67.39 -147.15 55.47 C-145.98 54.53 -144.8 53.6 -143.63 52.65 C-119.88 33.58 -92.67 18.97 -63.47 10.13 C-62.7 9.9 -61.94 9.67 -61.15 9.43 C-41.44 3.56 -20.59 -0.05 0 0 Z " fill="#000000" transform="translate(368.46875,345.8671875)"></path>
<!-- <path d="M0 0 C1.96 1.02 3.94 2.02 5.91 3.01 C22.46 11.42 38.42 21.4 52.92 33 C53.83 33.72 53.83 33.72 54.76 34.45 C74.74 50.25 94.34 67.78 109.92 88 C110.83 89.12 111.75 90.23 112.66 91.33 C156.41 144.46 182.16 210.31 191.92 278 C192.11 279.21 192.3 280.42 192.5 281.67 C194.46 295.79 194.32 309.96 194.3 324.19 C194.3 325.19 194.3 325.19 194.3 326.21 C194.3 346.13 193.77 365.41 189.92 385 C189.54 387.14 189.17 389.28 188.79 391.42 C177.84 451.59 151.28 506.6 112.92 554 C112.1 555.03 111.28 556.06 110.44 557.12 C103.59 565.5 95.99 573.15 88.36 580.82 C87.57 581.62 87.57 581.62 86.75 582.44 C79.81 589.44 72.67 595.89 64.92 602 C63.65 603.05 62.37 604.1 61.1 605.16 C52.71 612.02 44.06 618.19 34.92 624 C34.15 624.5 33.38 625 32.59 625.51 C3.75 644.04 -27.02 658.71 -60.08 668 C-61.44 668.39 -61.44 668.39 -62.83 668.79 C-75.19 672.27 -87.65 674.77 -100.33 676.75 C-101.59 676.95 -102.86 677.15 -104.16 677.36 C-122.02 680.03 -139.7 681.42 -157.76 681.38 C-158.73 681.38 -159.7 681.38 -160.7 681.38 C-178.76 681.34 -196.27 679.98 -214.08 677 C-215.2 676.82 -216.32 676.63 -217.48 676.44 C-281.48 665.36 -341.75 637.6 -390.08 594 C-391.1 593.09 -392.12 592.18 -393.14 591.27 C-404.01 581.48 -414.68 571.24 -424.08 560 C-424.87 559.1 -425.66 558.2 -426.47 557.27 C-473.94 502.89 -502.64 431.63 -509.08 360 C-509.17 358.99 -509.26 357.98 -509.36 356.94 C-510.27 345.97 -510.32 335 -510.33 324 C-510.33 322.99 -510.33 321.98 -510.33 320.93 C-510.32 303.78 -509.51 287.01 -507.08 270 C-506.87 268.51 -506.87 268.51 -506.65 266.98 C-497.86 206.05 -473.07 146.45 -435.08 98 C-434.36 97.08 -433.64 96.15 -432.9 95.19 C-428.65 89.76 -424.1 84.65 -419.43 79.58 C-417.53 77.5 -415.7 75.4 -413.89 73.25 C-405.72 63.86 -396.63 54.99 -387.08 47 C-386.17 46.21 -385.27 45.42 -384.34 44.61 C-355.52 19.46 -321.57 0.03 -286.08 -14 C-284.71 -14.54 -284.71 -14.54 -283.31 -15.09 C-258.19 -24.92 -231.82 -31.52 -205.08 -35 C-204.21 -35.11 -203.34 -35.23 -202.45 -35.35 C-134.52 -43.96 -60.57 -31.84 0 0 Z M-210.89 108.63 C-211.79 108.88 -212.7 109.13 -213.63 109.39 C-265.59 124.49 -307.52 160.89 -333.39 207.91 C-346.1 231.68 -354.24 257.35 -358.08 284 C-358.19 284.75 -358.31 285.49 -358.43 286.25 C-367.29 344.17 -353.33 409.27 -319.08 457 C-318.64 457.62 -318.2 458.23 -317.75 458.86 C-311.21 467.98 -304.28 476.51 -296.46 484.57 C-295.18 485.9 -293.92 487.25 -292.66 488.61 C-259.25 523.75 -209.02 540.63 -161.54 541.97 C-112.43 542.68 -64.94 525.54 -28.62 492.33 C-26.92 490.77 -25.2 489.23 -23.47 487.71 C-22.62 486.96 -21.76 486.21 -20.89 485.44 C-20.13 484.78 -19.37 484.12 -18.6 483.44 C3.41 462.18 19.5 433.55 29.92 405 C30.21 404.24 30.49 403.47 30.78 402.67 C35.72 389.03 39.3 375.28 41.92 361 C42.05 360.32 42.18 359.63 42.31 358.92 C47.26 330.76 46.12 299.89 39.92 272 C39.73 271.13 39.54 270.25 39.35 269.35 C34.6 247.87 27.48 227.33 16.92 208 C16.61 207.41 16.29 206.82 15.96 206.2 C-8.65 160.35 -51.4 125.7 -100.94 110.1 C-103.87 109.24 -106.81 108.42 -109.76 107.63 C-111.08 107.27 -111.08 107.27 -112.42 106.91 C-126.99 103.22 -141.73 102.65 -156.69 102.69 C-159.44 102.69 -162.2 102.67 -164.95 102.64 C-180.6 102.59 -195.79 104.38 -210.89 108.63 Z " fill="#000000" transform="translate(953.07568359375,390.9951171875)"></path> -->
<g transform="translate(300 210) scale(1.05)">
<path d="M0 0 C1.03 -0.01 2.06 -0.02 3.12 -0.03 C23.94 -0.19 44.46 -0.18 65.07 3.04 C67.34 3.43 69.62 3.83 71.89 4.24 C72.97 4.43 74.04 4.61 75.14 4.81 C94 8.2 112.64 13.07 130.63 19.69 C144.77 25.06 158.42 31.36 171.89 38.24 C172.7 38.65 173.51 39.06 174.34 39.49 C190.2 47.67 205.27 57.66 219.53 68.36 C222.02 70.27 224.46 72.25 226.89 74.24 C227.42 74.67 227.95 75.1 228.49 75.54 C244.04 88.36 259.55 102.11 272.7 117.42 C274.12 119.16 275.52 120.92 276.91 122.69 C279.09 125.49 281.39 128.17 283.71 130.86 C295.15 144.62 304.96 159.75 313.89 175.24 C324.39 193.92 333.09 213.17 340.19 233.39 C345.47 248.65 350.25 264.27 352.89 280.24 C352.89 281.56 352.89 282.88 352.89 284.24 C353.75 284.45 353.75 284.45 354.62 284.66 C364.36 287.16 373.75 290.6 383.21 293.99 C384.16 294.33 385.11 294.67 386.09 295.02 C413.29 304.72 440.36 314.83 467.42 324.94 C471.68 326.53 475.94 328.11 480.21 329.7 C483.75 331.01 487.28 332.33 490.82 333.66 C492.4 334.25 493.98 334.84 495.56 335.42 C497.67 336.2 499.78 336.99 501.88 337.79 C503.03 338.22 504.18 338.65 505.37 339.09 C506.62 339.66 506.62 339.66 507.89 340.24 C508.22 340.9 508.55 341.56 508.89 342.24 C461.16 360.21 413.41 378.18 365.27 395.05 C364.33 395.38 363.38 395.72 362.41 396.06 C361.57 396.35 360.72 396.64 359.86 396.95 C359.13 397.2 358.41 397.45 357.66 397.71 C357.08 397.88 356.5 398.06 355.89 398.24 C355.23 398.24 354.57 398.24 353.89 398.24 C353.85 399.08 353.85 399.08 353.8 399.94 C353.41 405.02 352.61 409.84 351.4 414.79 C350.76 417.24 350.12 419.68 349.46 422.11 C349.19 423.09 349.19 423.09 348.93 424.08 C343.73 443.26 337.15 461.86 328.83 479.93 C326.89 484.05 324.91 488.15 322.89 492.24 C322.49 493.05 322.09 493.87 321.68 494.71 C313.97 510.22 304.64 524.94 294.39 538.9 C288 547.49 281.43 555.89 274.16 563.76 C272.31 565.78 270.52 567.83 268.74 569.91 C264.41 574.86 259.8 579.53 255.14 584.18 C254.26 585.06 253.37 585.95 252.45 586.86 C246.52 592.74 240.5 598.12 233.89 603.24 C232.02 604.84 230.14 606.44 228.27 608.05 C214.52 619.49 199.4 629.35 183.89 638.24 C166.45 647.96 148.67 656.38 129.89 663.24 C129.03 663.56 128.16 663.89 127.26 664.22 C111.56 670.02 95.31 674.03 78.89 677.24 C69.6 678.85 60.26 680.17 50.89 681.24 C50.17 681.32 49.44 681.41 48.68 681.5 C42.36 682.2 36.11 682.41 29.75 682.44 C28.7 682.45 27.66 682.46 26.59 682.46 C23.23 682.48 19.88 682.49 16.52 682.49 C15.37 682.49 14.23 682.49 13.05 682.49 C-4.19 682.47 -21.06 682.04 -38.11 679.24 C-39.17 679.07 -40.24 678.9 -41.34 678.72 C-60.17 675.6 -78.76 671.16 -96.83 664.99 C-116.72 657.95 -136.22 649.47 -154.61 639.1 C-171.61 629.25 -188.23 618.19 -203.32 605.59 C-204.24 604.81 -205.16 604.04 -206.11 603.24 C-207.19 602.34 -208.27 601.44 -209.36 600.55 C-215.22 595.68 -220.8 590.7 -226.12 585.22 C-227.92 583.42 -229.77 581.79 -231.73 580.18 C-234.89 577.53 -237.51 574.62 -240.17 571.48 C-242.34 568.97 -244.59 566.55 -246.86 564.11 C-257.89 551.98 -267.74 538.68 -276.61 524.9 C-287.78 507.15 -297.89 488.51 -305.86 469.09 C-308.71 461.85 -311.2 454.49 -313.67 447.11 C-313.89 446.44 -314.12 445.77 -314.35 445.08 C-317.1 436.84 -317.1 436.84 -318.11 433.24 C-318.11 432.25 -318.11 431.26 -318.11 430.24 C-367.28 430.24 -416.45 430.24 -467.11 430.24 C-463.27 425.13 -459.43 420.08 -455.42 415.11 C-451.47 410.2 -447.55 405.27 -443.67 400.3 C-439.69 395.21 -435.63 390.18 -431.54 385.18 C-426.81 379.37 -422.19 373.5 -417.65 367.54 C-414.28 363.14 -410.79 358.83 -407.3 354.53 C-404.08 350.53 -401.06 346.44 -398.11 342.24 C-400.92 337.9 -403.94 333.79 -407.17 329.74 C-408.15 328.5 -409.13 327.25 -410.12 326.01 C-410.62 325.38 -411.11 324.76 -411.63 324.11 C-413.03 322.34 -414.42 320.56 -415.81 318.78 C-420.68 312.54 -425.61 306.37 -430.61 300.24 C-436.53 292.97 -442.34 285.63 -448.11 278.24 C-449.98 275.84 -451.85 273.45 -453.73 271.05 C-454.18 270.47 -454.63 269.9 -455.1 269.31 C-458.83 264.56 -462.66 259.89 -466.52 255.25 C-467.05 254.59 -467.57 253.92 -468.11 253.24 C-468.11 252.91 -468.11 252.58 -468.11 252.24 C-418.94 252.24 -369.77 252.24 -319.11 252.24 C-318.45 248.94 -317.79 245.64 -317.11 242.24 C-315.92 238.06 -314.48 233.97 -313.04 229.86 C-312.64 228.72 -312.24 227.58 -311.83 226.4 C-304.99 207.21 -295.94 189.06 -286.11 171.24 C-280.12 160.78 -273.29 150.9 -266.11 141.24 C-265.7 140.69 -265.29 140.14 -264.87 139.58 C-256.85 128.86 -248.5 118.32 -238.87 109 C-237.16 107.3 -235.63 105.53 -234.11 103.68 C-231.38 100.42 -228.33 97.73 -225.1 94.98 C-223.23 93.35 -221.51 91.65 -219.79 89.86 C-215.23 85.25 -210.2 81.24 -205.11 77.24 C-204.47 76.74 -203.84 76.24 -203.19 75.73 C-184.62 61.17 -164.94 48.45 -144.17 37.24 C-127.06 28.24 -108.62 20.99 -90.26 14.97 C-71.16 8.98 -51.68 5.02 -31.86 2.39 C-21.23 1.05 -10.71 0.08 0 0 Z M-38.61 110.86 C-52.12 113.94 -65.25 118.06 -78.11 123.24 C-90.88 128.64 -103.21 134.94 -114.9 142.43 C-127.76 150.91 -139.85 160.57 -151.09 171.1 C-159.24 178.87 -166.91 186.86 -173.66 195.89 C-174.48 197 -175.29 198.12 -176.11 199.24 C-176.87 200.28 -177.64 201.33 -178.43 202.4 C-187.26 214.81 -194.63 227.92 -201.29 241.61 C-202.03 243.12 -202.03 243.12 -202.79 244.66 C-203.24 245.6 -203.69 246.54 -204.15 247.51 C-204.55 248.35 -204.95 249.19 -205.37 250.06 C-205.61 250.78 -205.85 251.5 -206.11 252.24 C-205.78 253.23 -205.45 254.22 -205.11 255.24 C-203.38 256.57 -203.38 256.57 -201.23 257.8 C-197.33 260.29 -193.95 263.04 -190.54 266.18 C-189.7 266.97 -188.85 267.76 -187.98 268.58 C-185.78 270.62 -183.55 272.6 -181.29 274.56 C-177 278.3 -172.86 282.19 -168.73 286.11 C-163.21 291.33 -157.67 296.5 -151.99 301.54 C-151.37 302.1 -150.75 302.66 -150.11 303.24 C-149.71 303.76 -149.31 304.28 -148.9 304.82 C-148.31 305.29 -147.71 305.76 -147.11 306.24 C-144.09 306.69 -144.09 306.69 -140.57 306.61 C-139.9 306.61 -139.23 306.61 -138.54 306.62 C-136.27 306.63 -134.01 306.61 -131.75 306.6 C-130.12 306.6 -128.49 306.6 -126.85 306.61 C-122.36 306.61 -117.86 306.6 -113.36 306.59 C-108.52 306.57 -103.67 306.58 -98.83 306.58 C-90.43 306.58 -82.03 306.57 -73.64 306.56 C-61.49 306.53 -49.35 306.52 -37.21 306.52 C-17.51 306.51 2.19 306.49 21.88 306.46 C41.02 306.44 60.16 306.42 79.3 306.4 C80.48 306.4 81.66 306.4 82.87 306.4 C88.78 306.4 94.7 306.39 100.61 306.39 C149.71 306.36 198.8 306.31 247.89 306.24 C247.91 305 247.92 303.76 247.93 302.48 C247.94 301.43 247.94 301.43 247.95 300.36 C247.93 297.95 247.93 297.95 247.34 294.43 C244.76 281.83 240.78 269.63 236.24 257.61 C230.82 244 224.19 230.72 216.68 218.14 C209.57 206.65 201.1 195.95 192.16 185.82 C183.63 176.36 174.63 167.19 164.59 159.31 C163.26 158.29 163.26 158.29 161.89 157.24 C160.87 156.42 159.84 155.6 158.79 154.76 C151.5 148.97 143.95 143.92 135.89 139.24 C135.29 138.88 134.69 138.53 134.07 138.17 C122.48 131.36 110.59 124.85 97.97 120.15 C83.6 115.1 68.9 110.87 53.89 108.24 C39.66 105.92 25.42 104.79 11 104.89 C-5.76 105.23 -22.22 107.36 -38.61 110.86 Z M-146.11 376.24 C-148.94 378.57 -148.94 378.57 -151.11 381.24 C-152.21 382.3 -153.33 383.36 -154.45 384.4 C-155.05 384.96 -155.65 385.52 -156.27 386.1 C-156.9 386.68 -157.52 387.26 -158.17 387.86 C-158.83 388.48 -159.49 389.09 -160.17 389.73 C-165.16 394.37 -170.17 398.99 -175.21 403.59 C-177.18 405.39 -179.15 407.21 -181.09 409.05 C-188.64 416.12 -196.48 422.49 -205.11 428.24 C-203.87 432.42 -202.51 436.36 -200.67 440.32 C-198.96 443.75 -197.2 447.15 -195.42 450.55 C-194.83 451.7 -194.24 452.84 -193.64 454.03 C-187.88 465.09 -181.05 475.28 -173.5 485.19 C-163.72 497.66 -153.05 509.17 -141.27 519.8 C-138.6 522.03 -135.88 524.15 -133.11 526.24 C-132.49 526.71 -131.87 527.19 -131.23 527.68 C-119.46 536.65 -107.16 544.28 -94.11 551.24 C-93.41 551.61 -92.72 551.99 -92 552.37 C-81.35 558.05 -69.99 561.99 -58.53 565.72 C-44.1 570.36 -29.64 573.58 -14.63 575.64 C-0.14 577.45 14.31 577.95 28.89 577.24 C43.26 576.32 57.36 574.11 71.35 570.77 C83.59 567.68 95.5 563.89 107.08 558.85 C120.47 552.81 133.5 546.24 145.69 538.03 C159.82 528.38 172.52 517.25 184.85 505.41 C191.02 499.37 196.57 493.04 201.89 486.24 C202.71 485.23 203.52 484.22 204.36 483.18 C210.66 475.29 215.98 467.06 220.89 458.24 C221.36 457.41 221.83 456.57 222.31 455.71 C229.81 442.21 235.93 428.53 240.98 413.93 C241.43 412.6 241.43 412.6 241.89 411.24 C242.17 410.44 242.44 409.64 242.73 408.81 C245.17 401.6 247.29 394.37 248.63 386.86 C248.86 384.57 248.92 382.38 248.91 380.07 C248.91 378.81 248.9 377.54 248.89 376.24 C198.66 376.12 148.42 376.04 98.19 375.98 C92.26 375.98 86.33 375.97 80.41 375.96 C79.23 375.96 78.05 375.96 76.83 375.96 C57.71 375.94 38.59 375.9 19.47 375.85 C-0.14 375.81 -19.76 375.78 -39.37 375.77 C-51.47 375.76 -63.58 375.74 -75.69 375.7 C-83.98 375.67 -92.28 375.66 -100.58 375.67 C-105.37 375.67 -110.16 375.67 -114.95 375.64 C-119.33 375.62 -123.71 375.62 -128.09 375.63 C-129.68 375.64 -131.27 375.63 -132.86 375.61 C-135.01 375.59 -137.17 375.6 -139.32 375.62 C-141.12 375.62 -141.12 375.62 -142.95 375.62 C-144.51 375.92 -144.51 375.92 -146.11 376.24 Z " fill="#0929AE" transform="translate(469.10546875,136.76171875)"/>
<path d="M0 0 C1.03 -0.01 2.06 -0.02 3.12 -0.03 C23.94 -0.19 44.46 -0.18 65.07 3.04 C67.34 3.43 69.62 3.83 71.89 4.24 C72.97 4.43 74.04 4.61 75.14 4.81 C94 8.2 112.64 13.07 130.63 19.69 C144.77 25.06 158.42 31.36 171.89 38.24 C173.11 38.86 173.11 38.86 174.34 39.49 C190.2 47.67 205.27 57.66 219.53 68.36 C222.02 70.27 224.46 72.25 226.89 74.24 C227.42 74.67 227.95 75.1 228.49 75.54 C244.04 88.36 259.55 102.11 272.7 117.42 C274.12 119.16 275.52 120.92 276.91 122.69 C279.09 125.49 281.39 128.17 283.71 130.86 C295.15 144.62 304.96 159.75 313.89 175.24 C324.39 193.92 333.09 213.17 340.19 233.39 C345.48 248.68 350.11 264.27 352.89 280.24 C352.89 281.23 352.89 282.22 352.89 283.24 C350.17 282.89 347.53 282.43 344.89 281.64 C342.54 280.86 340.2 280.06 337.86 279.24 C336.96 278.93 336.07 278.62 335.14 278.31 C333.2 277.64 331.26 276.97 329.32 276.29 C309.93 269.58 290.47 263.09 270.96 256.74 C269.22 256.17 269.22 256.17 267.44 255.59 C260.93 253.47 254.41 251.35 247.89 249.24 C247.96 250.33 248.02 251.41 248.08 252.53 C248.31 256.66 248.53 260.79 248.75 264.91 C248.84 266.68 248.94 268.45 249.04 270.22 C249.71 282.24 250.03 294.2 249.89 306.24 C249.23 305.91 248.57 305.58 247.89 305.24 C247.5 303.1 247.12 300.96 246.81 298.8 C245.49 289.82 243.47 281.22 240.65 272.59 C234.91 255.85 227.77 240.01 219.33 224.47 C212.96 213.07 205.23 202.76 196.99 192.65 C188.71 182.66 179.69 173.23 169.95 164.64 C167.3 162.45 164.62 160.34 161.89 158.24 C160.87 157.42 159.84 156.6 158.79 155.75 C151.5 149.97 143.95 144.92 135.89 140.24 C135.29 139.88 134.69 139.53 134.07 139.17 C122.48 132.36 110.59 125.85 97.97 121.15 C83.6 116.1 68.9 111.87 53.89 109.24 C39.66 106.92 25.42 105.79 11 105.89 C-3.44 106.19 -17.63 107.8 -31.82 110.46 C-46.59 113.42 -60.92 117.56 -74.98 122.98 C-88.09 128.26 -100.74 134.57 -112.74 142.04 C-125.67 150.33 -137.81 159.86 -149.11 170.24 C-157.1 177.7 -164.66 185.42 -171.32 194.12 C-172.6 195.81 -173.85 197.52 -175.11 199.24 C-175.87 200.28 -176.64 201.33 -177.43 202.41 C-189.03 218.7 -197.4 236.09 -206.11 254.24 C-243.4 253.58 -280.69 252.92 -319.11 252.24 C-317.53 244.34 -315.68 237.38 -313.04 229.86 C-312.64 228.72 -312.24 227.58 -311.83 226.4 C-304.99 207.21 -295.94 189.06 -286.11 171.24 C-280.12 160.78 -273.29 150.9 -266.11 141.24 C-265.7 140.69 -265.29 140.14 -264.87 139.58 C-256.85 128.86 -248.5 118.32 -238.87 109 C-237.16 107.3 -235.63 105.53 -234.11 103.68 C-231.38 100.42 -228.33 97.73 -225.1 94.98 C-223.23 93.35 -221.51 91.65 -219.79 89.86 C-215.23 85.25 -210.2 81.24 -205.11 77.24 C-204.47 76.74 -203.84 76.24 -203.19 75.73 C-184.62 61.17 -164.94 48.45 -144.17 37.24 C-127.06 28.24 -108.62 20.99 -90.26 14.97 C-71.16 8.98 -51.68 5.02 -31.86 2.39 C-21.23 1.05 -10.71 0.08 0 0 Z " fill="#E3201B" transform="translate(469.10546875,136.76171875)"/>
<path d="M0 0 C0.66 0 1.32 0 2 0 C2.15 12.56 1.7 25.03 1 37.56 C0.9 39.36 0.81 41.17 0.71 42.97 C0.48 47.31 0.24 51.66 0 56 C8.63 53.18 17.25 50.35 25.88 47.52 C29.89 46.21 33.9 44.89 37.91 43.58 C42.56 42.06 47.21 40.53 51.86 39.01 C53 38.63 53 38.63 54.17 38.25 C62.32 35.57 70.46 32.86 78.56 30.05 C79.57 29.69 79.57 29.69 80.6 29.34 C83.75 28.24 86.89 27.14 90.03 26.03 C91.13 25.64 92.23 25.26 93.36 24.86 C94.31 24.52 95.26 24.19 96.24 23.84 C99.15 22.96 102 22.44 105 22 C103 36.55 99.33 50.51 94.89 64.5 C89.15 81.91 82.09 98.57 74 115 C73.4 116.22 73.4 116.22 72.79 117.47 C65.07 132.98 55.74 147.7 45.5 161.66 C39.1 170.25 32.54 178.65 25.27 186.52 C23.42 188.54 21.63 190.59 19.84 192.67 C15.51 197.63 10.9 202.29 6.25 206.94 C5.36 207.82 4.47 208.71 3.56 209.63 C-2.38 215.5 -8.4 220.89 -15 226 C-16.88 227.6 -18.75 229.21 -20.62 230.81 C-34.38 242.25 -49.49 252.11 -65 261 C-82.44 270.72 -100.22 279.14 -119 286 C-119.87 286.32 -120.74 286.65 -121.63 286.98 C-137.34 292.78 -153.58 296.79 -170 300 C-179.29 301.61 -188.63 302.93 -198 304 C-198.73 304.09 -199.46 304.17 -200.21 304.26 C-206.53 304.96 -212.79 305.17 -219.15 305.2 C-220.19 305.21 -221.23 305.22 -222.31 305.22 C-225.66 305.24 -229.02 305.25 -232.38 305.25 C-233.52 305.25 -234.67 305.25 -235.85 305.25 C-253.08 305.24 -269.96 304.8 -287 302 C-288.07 301.83 -289.14 301.66 -290.23 301.48 C-309.06 298.36 -327.66 293.92 -345.72 287.75 C-365.62 280.71 -385.11 272.23 -403.51 261.86 C-420.51 252.01 -437.13 240.95 -452.21 228.35 C-453.59 227.19 -453.59 227.19 -455 226 C-456.08 225.1 -457.17 224.21 -458.25 223.31 C-464.12 218.44 -469.7 213.46 -475.02 207.98 C-476.82 206.18 -478.66 204.55 -480.62 202.94 C-483.78 200.3 -486.41 197.38 -489.07 194.25 C-491.23 191.73 -493.49 189.31 -495.75 186.88 C-506.78 174.74 -516.63 161.44 -525.5 147.66 C-536.68 129.91 -546.79 111.27 -554.75 91.85 C-557.6 84.61 -560.1 77.25 -562.56 69.88 C-562.9 68.87 -562.9 68.87 -563.24 67.85 C-565.99 59.6 -565.99 59.6 -567 56 C-567 55.01 -567 54.02 -567 53 C-511.06 52.01 -511.06 52.01 -454 51 C-449.71 59.91 -445.42 68.82 -441 78 C-434.3 89.77 -427.59 100.6 -419 111 C-418.15 112.05 -417.31 113.1 -416.46 114.15 C-408.46 123.96 -399.64 133.03 -390.23 141.49 C-387.54 143.75 -384.8 145.89 -382 148 C-381.38 148.48 -380.76 148.95 -380.12 149.44 C-368.35 158.41 -356.05 166.04 -343 173 C-342.31 173.37 -341.61 173.75 -340.9 174.14 C-330.24 179.81 -318.88 183.75 -307.43 187.49 C-293 192.12 -278.54 195.34 -263.52 197.4 C-249.03 199.21 -234.58 199.71 -220 199 C-205.64 198.08 -191.54 195.87 -177.54 192.53 C-165.31 189.44 -153.39 185.65 -141.81 180.61 C-128.42 174.58 -115.4 168 -103.2 159.79 C-88.19 149.54 -74.73 137.62 -61.75 124.94 C-56.79 119.91 -52.36 114.55 -48 109 C-47.19 107.99 -46.37 106.98 -45.53 105.94 C-39.23 98.05 -33.91 89.82 -29 81 C-28.53 80.17 -28.07 79.33 -27.58 78.48 C-20.58 65.87 -14.71 53.13 -9.9 39.53 C-9.27 37.69 -8.63 35.84 -8 34 C-7.73 33.24 -7.46 32.47 -7.18 31.68 C-4.73 24.7 -2.86 17.78 -1.6 10.49 C-1.02 7 -0.5 3.5 0 0 Z " fill="#E3201B" transform="translate(718,514)"/>
</g>
<path d="M0 0 C1.11 -0.01 2.21 -0.01 3.35 -0.02 C4.57 -0.02 5.78 -0.02 7.03 -0.02 C8.31 -0.03 9.59 -0.03 10.9 -0.04 C14.41 -0.05 17.92 -0.06 21.43 -0.06 C23.62 -0.06 25.81 -0.07 28.01 -0.07 C34.87 -0.08 41.73 -0.09 48.59 -0.1 C56.51 -0.1 64.43 -0.12 72.35 -0.15 C78.47 -0.17 84.59 -0.18 90.71 -0.18 C94.37 -0.18 98.02 -0.19 101.68 -0.21 C105.76 -0.23 109.84 -0.22 113.92 -0.22 C115.13 -0.23 116.33 -0.23 117.58 -0.24 C127.88 -0.19 127.88 -0.19 132.67 3.14 C137.24 8.08 137.79 11.57 137.8 18.17 C137.8 18.89 137.8 19.62 137.8 20.36 C137.81 22.81 137.81 25.25 137.81 27.69 C137.81 29.46 137.81 31.22 137.81 32.98 C137.82 37.84 137.82 42.7 137.83 47.56 C137.83 52.79 137.83 58.03 137.84 63.26 C137.85 72.35 137.86 81.43 137.87 90.51 C137.88 104.9 137.9 119.28 137.92 133.66 C137.93 138.59 137.94 143.51 137.94 148.44 C137.94 149.67 137.95 150.9 137.95 152.17 C137.97 166.19 137.99 180.21 138.01 194.23 C138.01 195.52 138.01 196.8 138.01 198.12 C138.04 218.83 138.06 239.54 138.07 260.25 C138.09 281.54 138.12 302.83 138.16 324.12 C138.18 337.24 138.2 350.35 138.2 363.46 C138.2 372.48 138.21 381.49 138.23 390.51 C138.25 395.69 138.25 400.87 138.25 406.06 C138.2 455.62 139.57 507.61 173.23 547.25 C174.67 549.14 174.67 549.14 174.67 551.14 C175.26 551.4 175.85 551.66 176.47 551.93 C178.84 553.23 180.12 554.56 181.92 556.58 C207.78 582.96 247.21 591.13 282.67 592.14 C331.02 592.54 377.2 577.47 412.28 543.48 C413.48 542.32 414.69 541.19 415.91 540.06 C441.76 515.45 454.86 479.94 458.67 445.14 C458.76 444.4 458.84 443.66 458.93 442.89 C459.85 434.21 459.81 425.55 459.81 416.84 C459.81 415.09 459.81 413.35 459.81 411.6 C459.82 406.82 459.82 402.05 459.83 397.27 C459.83 392.12 459.83 386.96 459.84 381.8 C459.85 372.87 459.86 363.94 459.87 355.01 C459.88 340.9 459.9 326.78 459.92 312.67 C459.93 307.84 459.94 303.01 459.94 298.18 C459.95 296.37 459.95 296.37 459.95 294.52 C459.97 280.79 459.99 267.07 460.01 253.34 C460.01 252.09 460.01 250.83 460.01 249.54 C460.04 229.19 460.06 208.84 460.07 188.49 C460.09 167.59 460.12 146.69 460.16 125.79 C460.18 112.9 460.2 100.01 460.2 87.12 C460.2 78.29 460.21 69.47 460.23 60.64 C460.25 55.55 460.25 50.45 460.25 45.36 C460.24 40.7 460.25 36.04 460.27 31.38 C460.27 29.69 460.27 28 460.27 26.31 C460.26 24.02 460.27 21.73 460.29 19.44 C460.29 18.16 460.29 16.89 460.29 15.58 C460.78 11.17 462.16 7.79 465.17 4.5 C469.59 1.05 472.45 0.02 477.99 -0.01 C479.09 -0.01 480.19 -0.02 481.33 -0.03 C482.54 -0.03 483.75 -0.03 485 -0.04 C486.27 -0.04 487.55 -0.05 488.86 -0.06 C493.09 -0.08 497.32 -0.09 501.56 -0.1 C503.01 -0.1 504.47 -0.11 505.93 -0.11 C512.78 -0.13 519.63 -0.14 526.49 -0.15 C534.39 -0.16 542.29 -0.19 550.19 -0.23 C556.3 -0.26 562.41 -0.27 568.53 -0.28 C572.17 -0.28 575.82 -0.29 579.47 -0.31 C583.54 -0.34 587.62 -0.34 591.69 -0.33 C592.89 -0.34 594.09 -0.36 595.33 -0.37 C607.83 -0.29 607.83 -0.29 612.67 4.14 C617.14 10.31 617.23 15.41 617.17 22.89 C617.18 24.66 617.18 24.66 617.19 26.48 C617.2 29.77 617.19 33.06 617.18 36.35 C617.17 39.93 617.18 43.5 617.19 47.08 C617.2 53.36 617.2 59.63 617.19 65.9 C617.17 75.23 617.17 84.56 617.18 93.89 C617.2 110.54 617.2 127.2 617.18 143.86 C617.17 158.44 617.16 173.02 617.16 187.59 C617.16 189.04 617.16 189.04 617.17 190.52 C617.17 194.44 617.17 198.37 617.17 202.29 C617.17 239.1 617.16 275.9 617.13 312.71 C617.11 345.42 617.1 378.14 617.11 410.85 C617.12 419.23 617.12 427.61 617.12 435.99 C617.12 437.02 617.12 438.05 617.12 439.11 C617.13 466.43 617.12 493.75 617.11 521.08 C617.11 524.01 617.11 526.95 617.11 529.89 C617.11 531.84 617.11 533.79 617.11 535.74 C617.1 550.31 617.1 564.88 617.11 579.45 C617.11 596.02 617.11 612.58 617.09 629.14 C617.08 638.42 617.07 647.69 617.08 656.97 C617.09 663.16 617.08 669.35 617.07 675.54 C617.06 679.07 617.06 682.6 617.07 686.13 C617.08 689.92 617.06 693.72 617.05 697.52 C617.06 699.17 617.06 699.17 617.07 700.86 C617.02 707.15 616.6 711.93 612.17 716.78 C607.74 720.23 604.88 721.26 599.35 721.29 C598.25 721.29 597.14 721.3 596.01 721.31 C594.19 721.31 594.19 721.31 592.34 721.32 C590.42 721.33 590.42 721.33 588.47 721.34 C584.24 721.36 580.01 721.37 575.78 721.38 C574.32 721.38 572.87 721.39 571.41 721.39 C564.55 721.41 557.7 721.42 550.85 721.43 C542.95 721.44 535.05 721.47 527.15 721.51 C521.04 721.54 514.92 721.55 508.81 721.56 C505.16 721.56 501.52 721.57 497.87 721.59 C493.79 721.62 489.72 721.62 485.65 721.61 C484.45 721.62 483.24 721.64 482.01 721.65 C475.09 721.61 470.51 720.94 464.67 717.14 C458.81 710.37 460.06 700.59 460.06 692.17 C460.04 690.52 460.03 688.88 460.01 687.23 C459.97 682.91 459.95 678.6 459.93 674.29 C459.91 669.88 459.87 665.47 459.83 661.05 C459.75 652.42 459.7 643.78 459.67 635.14 C455.62 639.16 455.62 639.16 451.84 643.41 C451.35 643.98 450.87 644.56 450.37 645.15 C449.87 645.75 449.37 646.34 448.86 646.95 C442.04 654.97 434.99 662.08 426.76 668.67 C424.58 670.41 422.43 672.17 420.3 673.96 C375.92 710.82 315.35 733.1 257.67 734.14 C256.68 734.16 255.7 734.18 254.68 734.2 C180.11 735.53 106.93 713.59 52.38 661 C23.83 633.01 3.97 598.39 -7.33 560.14 C-7.58 559.31 -7.83 558.48 -8.09 557.63 C-15.85 531.32 -17.48 503.45 -17.48 476.17 C-17.48 474.18 -17.49 472.18 -17.49 470.18 C-17.5 464.72 -17.5 459.26 -17.51 453.8 C-17.51 447.9 -17.52 442 -17.53 436.1 C-17.55 422.55 -17.56 408.99 -17.57 395.44 C-17.57 388.74 -17.58 382.04 -17.58 375.34 C-17.6 352.38 -17.61 329.43 -17.62 306.48 C-17.62 305.04 -17.62 303.6 -17.62 302.16 C-17.62 301.45 -17.62 300.74 -17.62 300 C-17.62 296.39 -17.63 292.78 -17.63 289.16 C-17.63 288.45 -17.63 287.73 -17.63 286.99 C-17.64 263.71 -17.66 240.44 -17.69 217.16 C-17.73 192.53 -17.75 167.9 -17.75 143.27 C-17.75 140.56 -17.75 137.86 -17.75 135.16 C-17.75 134.49 -17.75 133.83 -17.75 133.14 C-17.75 123.1 -17.77 113.05 -17.79 103.01 C-17.81 91.59 -17.81 80.17 -17.81 68.76 C-17.8 62.93 -17.8 57.1 -17.82 51.28 C-17.84 45.95 -17.84 40.62 -17.82 35.28 C-17.82 33.35 -17.83 31.42 -17.84 29.49 C-17.85 26.87 -17.84 24.25 -17.83 21.63 C-17.84 20.88 -17.85 20.13 -17.86 19.36 C-17.79 13.9 -16.33 9.71 -13.33 5.14 C-9.04 1.06 -5.82 0.02 0 0 Z " fill="#000000" transform="translate(1361.3316192626953,352.85955810546875)"></path>
<path d="M0 0 C1.3 -0.01 2.6 -0.01 3.93 -0.02 C6.67 -0.03 9.41 -0.03 12.15 -0.04 C14.89 -0.04 17.64 -0.06 20.39 -0.08 C38.52 -0.23 56.21 0.67 74.18 3.2 C76.72 3.54 79.27 3.88 81.81 4.21 C92.08 5.65 101.93 8.41 111.82 11.47 C113.87 12.11 115.93 12.71 118 13.32 C146.55 22.09 174.47 37.66 196.18 58.2 C197.45 59.29 198.72 60.38 199.99 61.45 C209.6 69.85 218.45 79.05 226.18 89.2 C227.36 90.75 227.36 90.75 228.57 92.33 C253.46 125.72 267.2 166.07 274.3 206.77 C274.46 207.64 274.62 208.52 274.79 209.42 C279.06 235.01 278.48 260.91 278.46 286.75 C278.45 292.65 278.46 298.55 278.47 304.45 C278.48 315.97 278.48 327.49 278.48 339.01 C278.48 348.37 278.48 357.73 278.49 367.09 C278.49 368.44 278.49 369.79 278.49 371.14 C278.49 373.17 278.49 375.2 278.49 377.24 C278.5 396.11 278.5 414.97 278.5 433.84 C278.5 434.55 278.5 435.26 278.5 435.99 C278.5 439.58 278.5 443.18 278.5 446.77 C278.5 447.49 278.5 448.2 278.5 448.93 C278.5 450.38 278.5 451.82 278.49 453.26 C278.49 475.77 278.5 498.28 278.52 520.78 C278.54 546.11 278.55 571.44 278.54 596.77 C278.54 599.46 278.54 602.16 278.54 604.86 C278.54 605.52 278.54 606.19 278.54 606.87 C278.54 616.9 278.55 626.93 278.56 636.96 C278.57 648.35 278.57 659.74 278.56 671.12 C278.55 676.94 278.55 682.75 278.56 688.56 C278.58 693.87 278.57 699.19 278.56 704.5 C278.56 706.43 278.56 708.35 278.57 710.28 C278.58 712.89 278.57 715.5 278.55 718.11 C278.57 719.24 278.57 719.24 278.58 720.4 C278.52 726.24 276.98 729.33 273 733.47 C269.37 735.7 266.18 735.87 262.03 735.94 C261.24 735.97 260.44 736 259.63 736.03 C257.15 736.11 254.66 736.16 252.18 736.2 C251.42 736.22 250.66 736.23 249.88 736.25 C244.46 736.34 239.05 736.34 233.64 736.34 C231.89 736.34 230.15 736.34 228.41 736.34 C224.78 736.34 221.14 736.34 217.5 736.33 C213.87 736.33 210.23 736.33 206.59 736.33 C195.02 736.35 183.45 736.32 171.88 736.23 C170.06 736.21 168.23 736.2 166.4 736.18 C160.92 736.14 155.44 736.08 149.96 735.99 C148.26 735.96 146.55 735.94 144.85 735.93 C142.5 735.9 140.14 735.86 137.79 735.81 C137.11 735.81 136.42 735.81 135.71 735.81 C130.76 735.66 127.88 734.49 124.18 731.2 C118.66 723.38 119.62 714.5 119.67 705.32 C119.67 703.48 119.66 701.63 119.66 699.79 C119.64 694.72 119.65 689.66 119.66 684.59 C119.67 679.13 119.66 673.66 119.64 668.2 C119.63 658.73 119.63 649.26 119.63 639.79 C119.64 626.07 119.63 612.36 119.61 598.64 C119.58 576.37 119.56 554.09 119.56 531.81 C119.56 530.46 119.56 529.12 119.56 527.77 C119.56 527.1 119.56 526.44 119.56 525.75 C119.56 522.37 119.56 519 119.56 515.62 C119.56 514.62 119.56 514.62 119.56 513.59 C119.56 498.07 119.55 482.55 119.54 467.03 C119.54 466.03 119.54 466.03 119.54 465.02 C119.52 442.17 119.5 419.31 119.47 396.46 C119.46 382.79 119.45 369.12 119.46 355.45 C119.46 346.07 119.45 336.69 119.44 327.31 C119.44 321.91 119.43 316.51 119.44 311.1 C119.45 306.14 119.44 301.18 119.43 296.22 C119.43 294.44 119.43 292.66 119.44 290.88 C119.48 274.83 118.64 258.8 114.55 243.2 C114.3 242.2 114.04 241.19 113.77 240.16 C104.89 207.24 85.07 180.07 55.49 162.82 C32.99 149.97 8.13 142.15 -17.89 142 C-18.73 141.99 -19.57 141.99 -20.43 141.98 C-23.13 141.96 -25.82 141.95 -28.51 141.95 C-29.43 141.95 -30.35 141.95 -31.29 141.95 C-44.98 141.97 -58.39 142.26 -71.82 145.2 C-72.58 145.37 -73.34 145.54 -74.13 145.71 C-119.63 156.14 -157.25 184.57 -182.01 223.64 C-202.87 258.49 -211 296.76 -210.95 337.05 C-210.95 338.72 -210.96 340.39 -210.96 342.07 C-210.96 345.68 -210.96 349.29 -210.96 352.9 C-210.96 358.79 -210.97 364.67 -210.97 370.55 C-210.98 379.08 -210.99 387.62 -210.99 396.15 C-210.99 409.64 -211.01 423.14 -211.03 436.63 C-211.04 441.25 -211.04 445.87 -211.05 450.49 C-211.05 451.64 -211.05 452.8 -211.05 453.99 C-211.07 467.11 -211.09 480.23 -211.1 493.35 C-211.1 494.55 -211.11 495.75 -211.11 496.98 C-211.13 516.44 -211.14 535.89 -211.15 555.34 C-211.16 575.32 -211.18 595.31 -211.22 615.29 C-211.24 627.61 -211.25 639.93 -211.24 652.25 C-211.24 660.69 -211.25 669.12 -211.27 677.56 C-211.28 682.43 -211.29 687.3 -211.28 692.16 C-211.27 696.62 -211.28 701.08 -211.3 705.53 C-211.31 707.15 -211.3 708.76 -211.29 710.37 C-211.22 725.42 -211.22 725.42 -215.82 732.2 C-221.71 737.27 -230.86 736.35 -238.25 736.33 C-239.15 736.33 -240.06 736.34 -241 736.34 C-244 736.34 -246.99 736.34 -249.99 736.34 C-252.11 736.34 -254.24 736.34 -256.36 736.34 C-260.82 736.34 -265.28 736.34 -269.74 736.33 C-274.24 736.33 -278.75 736.33 -283.25 736.33 C-296.13 736.35 -309.01 736.32 -321.89 736.24 C-325.74 736.21 -329.6 736.2 -333.46 736.2 C-337.73 736.19 -341.99 736.16 -346.26 736.1 C-347.79 736.08 -349.31 736.07 -350.84 736.08 C-364.5 736.1 -364.5 736.1 -369.63 731.07 C-373.5 725 -373.1 718.56 -373.07 711.63 C-373.08 710.45 -373.08 709.27 -373.08 708.06 C-373.09 704.78 -373.09 701.5 -373.08 698.22 C-373.08 694.66 -373.09 691.1 -373.09 687.53 C-373.1 681.29 -373.1 675.04 -373.1 668.79 C-373.09 659.5 -373.1 650.21 -373.11 640.92 C-373.12 623.37 -373.13 605.81 -373.12 588.26 C-373.12 574.71 -373.12 561.15 -373.13 547.6 C-373.13 545.66 -373.13 543.71 -373.13 541.76 C-373.13 538.83 -373.13 535.9 -373.13 532.97 C-373.14 505.7 -373.14 478.44 -373.14 451.17 C-373.14 449.63 -373.14 449.63 -373.14 448.06 C-373.14 442.84 -373.14 437.63 -373.14 432.42 C-373.14 431.38 -373.14 430.35 -373.14 429.28 C-373.14 427.19 -373.14 425.1 -373.14 423 C-373.13 390.42 -373.14 357.84 -373.16 325.26 C-373.18 288.68 -373.19 252.09 -373.18 215.5 C-373.18 211.6 -373.18 207.7 -373.18 203.81 C-373.18 202.85 -373.18 201.89 -373.18 200.9 C-373.18 186.39 -373.19 171.88 -373.2 157.37 C-373.21 140.87 -373.21 124.37 -373.2 107.88 C-373.19 98.64 -373.19 89.41 -373.21 80.17 C-373.22 74 -373.21 67.84 -373.2 61.67 C-373.2 58.16 -373.19 54.64 -373.21 51.13 C-373.22 47.34 -373.21 43.56 -373.2 39.78 C-373.2 38.68 -373.21 37.58 -373.22 36.45 C-373.17 29.66 -372.39 25.18 -367.82 19.89 C-364.42 17.02 -361.43 17.07 -357.15 17.06 C-355.37 17.05 -355.37 17.05 -353.57 17.03 C-352.27 17.03 -350.97 17.03 -349.63 17.03 C-348.25 17.02 -346.87 17.01 -345.49 17.01 C-340.96 16.99 -336.43 16.97 -331.89 16.96 C-330.33 16.96 -328.77 16.96 -327.21 16.95 C-319.88 16.93 -312.55 16.92 -305.21 16.91 C-296.75 16.9 -288.29 16.87 -279.82 16.83 C-273.28 16.8 -266.74 16.79 -260.2 16.79 C-256.29 16.78 -252.38 16.77 -248.48 16.75 C-244.8 16.73 -241.12 16.72 -237.45 16.73 C-235.46 16.73 -233.47 16.71 -231.48 16.69 C-220.62 16.76 -220.62 16.76 -215.82 21.2 C-211.46 26.01 -211.68 30.85 -211.71 37.09 C-211.71 37.88 -211.71 38.67 -211.71 39.49 C-211.71 42.1 -211.71 44.7 -211.72 47.31 C-211.72 49.12 -211.73 50.93 -211.73 52.74 C-211.73 57.5 -211.74 62.27 -211.75 67.03 C-211.76 71.89 -211.77 76.75 -211.77 81.61 C-211.78 91.14 -211.8 100.67 -211.82 110.2 C-211.16 110.53 -210.5 110.86 -209.82 111.2 C-209.58 110.51 -209.35 109.83 -209.11 109.12 C-207.56 105.62 -205.5 102.65 -203.26 99.58 C-202.81 98.96 -202.35 98.34 -201.89 97.7 C-200.54 95.86 -199.18 94.03 -197.82 92.2 C-196.85 90.89 -196.85 90.89 -195.86 89.55 C-184.31 74.67 -170.11 61.17 -154.82 50.2 C-153.76 49.43 -152.7 48.66 -151.6 47.86 C-107.64 16.66 -53.83 0.19 0 0 Z " fill="#000000" transform="translate(2471.8203125,336.796875)"></path>
<path d="M0 0 C0.65 -0.01 1.3 -0.01 1.97 -0.02 C4.15 -0.03 6.33 -0.03 8.5 -0.03 C10.07 -0.04 11.63 -0.05 13.19 -0.06 C17.44 -0.08 21.68 -0.09 25.92 -0.09 C28.58 -0.1 31.23 -0.1 33.88 -0.11 C43.15 -0.13 52.41 -0.15 61.67 -0.15 C70.3 -0.16 78.92 -0.18 87.54 -0.23 C94.95 -0.26 102.37 -0.28 109.78 -0.28 C114.2 -0.28 118.62 -0.29 123.04 -0.32 C127.21 -0.34 131.37 -0.34 135.54 -0.33 C137.06 -0.33 138.58 -0.33 140.11 -0.35 C148.48 -0.43 155.77 -0.31 162.51 5.27 C167.8 10.98 168.63 15.7 168.63 23.26 C168.63 23.97 168.64 24.67 168.64 25.4 C168.64 27.79 168.64 30.18 168.64 32.57 C168.64 34.3 168.64 36.03 168.64 37.76 C168.65 42.54 168.65 47.33 168.65 52.11 C168.65 57.31 168.65 62.5 168.65 67.7 C168.66 78.01 168.66 88.33 168.67 98.64 C168.67 110.99 168.67 123.35 168.68 135.7 C168.7 164.84 168.7 193.98 168.71 223.13 C168.71 237.95 168.71 252.78 168.72 267.6 C168.73 315.13 168.74 362.67 168.74 410.21 C168.74 412.48 168.74 414.75 168.74 417.02 C168.74 421.58 168.74 426.14 168.74 430.69 C168.74 436.03 168.74 441.37 168.75 446.7 C168.75 448.23 168.75 449.76 168.75 451.28 C168.75 500.34 168.76 549.4 168.79 598.46 C168.8 633.7 168.82 668.95 168.82 704.2 C168.82 704.92 168.82 705.64 168.82 706.39 C168.83 722.3 168.83 738.2 168.83 754.11 C168.83 759.8 168.83 765.49 168.83 771.18 C168.83 772.6 168.83 774.01 168.83 775.43 C168.83 798 168.84 820.58 168.85 843.15 C168.87 866.52 168.87 889.88 168.87 913.25 C168.86 926.73 168.86 940.2 168.88 953.68 C168.89 962.67 168.89 971.67 168.88 980.66 C168.87 985.79 168.87 990.92 168.89 996.05 C168.9 1000.72 168.89 1005.38 168.88 1010.04 C168.88 1011.72 168.88 1013.4 168.89 1015.08 C168.9 1017.36 168.89 1019.64 168.88 1021.91 C168.88 1023.18 168.88 1024.44 168.88 1025.74 C168.26 1031.63 166.27 1036.23 161.63 1040.09 C160.97 1040.65 160.32 1041.21 159.64 1041.79 C155.18 1044.88 151.37 1045.53 146 1045.53 C144.68 1045.54 143.36 1045.55 142.01 1045.56 C140.56 1045.55 139.1 1045.55 137.65 1045.55 C136.12 1045.55 134.58 1045.56 133.05 1045.56 C128.89 1045.58 124.72 1045.58 120.56 1045.58 C117.08 1045.57 113.6 1045.58 110.12 1045.58 C101.91 1045.6 93.7 1045.6 85.49 1045.59 C77.03 1045.58 68.57 1045.6 60.11 1045.62 C52.84 1045.64 45.56 1045.64 38.29 1045.64 C33.95 1045.64 29.61 1045.64 25.27 1045.65 C21.19 1045.67 17.11 1045.66 13.02 1045.65 C11.53 1045.65 10.03 1045.65 8.54 1045.66 C-8.02 1045.74 -8.02 1045.74 -14.48 1040.73 C-14.92 1040.19 -15.36 1039.65 -15.81 1039.09 C-16.26 1038.56 -16.71 1038.03 -17.17 1037.48 C-22.25 1029.01 -21.97 1020.54 -22.01 1010.96 C-22.02 1009.38 -22.04 1007.8 -22.06 1006.22 C-22.11 1002.08 -22.14 997.95 -22.16 993.81 C-22.19 989.58 -22.24 985.35 -22.29 981.12 C-22.37 972.84 -22.44 964.56 -22.49 956.27 C-25.3 959.02 -27.55 961.7 -29.74 964.96 C-55.63 1001.02 -97.05 1029.19 -138.13 1044.98 C-140.86 1046.03 -143.55 1047.14 -146.24 1048.27 C-158.6 1053.2 -171.43 1056.82 -184.49 1059.27 C-185.8 1059.53 -187.11 1059.79 -188.42 1060.05 C-207.23 1063.72 -225.76 1065.47 -244.93 1065.4 C-245.95 1065.4 -245.95 1065.4 -246.99 1065.39 C-289.62 1065.25 -334.1 1057.57 -372.49 1038.27 C-373.81 1037.67 -375.12 1037.07 -376.44 1036.48 C-391.27 1029.77 -405.15 1021.6 -418.49 1012.27 C-419.18 1011.8 -419.87 1011.32 -420.58 1010.82 C-430.13 1004.15 -439.05 997.32 -447.49 989.27 C-448.84 988.08 -450.2 986.89 -451.56 985.71 C-461.88 976.72 -471.63 967.76 -480.21 957.06 C-482.41 954.38 -484.7 951.82 -487.06 949.27 C-491.64 944.23 -495.59 938.86 -499.49 933.27 C-500.18 932.31 -500.87 931.35 -501.57 930.36 C-516.88 908.63 -530.2 885.8 -540.49 861.27 C-540.94 860.24 -541.39 859.2 -541.85 858.13 C-543.09 855.19 -544.3 852.23 -545.49 849.27 C-546 848.06 -546.51 846.85 -547.04 845.59 C-556.23 823.25 -562.28 799.85 -566.92 776.19 C-567.4 773.74 -567.91 771.29 -568.42 768.85 C-570.01 761.01 -571.09 753.15 -572.06 745.21 C-572.17 744.27 -572.29 743.34 -572.41 742.37 C-572.8 739.01 -573.15 735.64 -573.49 732.27 C-573.58 731.51 -573.66 730.74 -573.75 729.95 C-575.5 713.58 -575.86 697.31 -575.81 680.86 C-575.81 678.81 -575.81 676.75 -575.8 674.7 C-575.78 654.74 -575.21 635.08 -572.49 615.27 C-572.26 613.38 -572.03 611.49 -571.8 609.59 C-570.09 596.03 -567.41 582.63 -564.49 569.27 C-564.29 568.31 -564.08 567.35 -563.86 566.36 C-560.98 553.42 -557.19 540.84 -552.99 528.27 C-552.65 527.25 -552.65 527.25 -552.31 526.21 C-549.78 518.68 -547.13 511.19 -544.36 503.74 C-544.13 503.1 -543.89 502.47 -543.64 501.81 C-541.49 496.09 -539.01 490.53 -536.33 485.04 C-536.03 484.42 -535.73 483.8 -535.42 483.16 C-535.11 482.54 -534.81 481.92 -534.49 481.27 C-534.19 480.65 -533.88 480.02 -533.57 479.37 C-531.61 475.37 -529.61 471.39 -527.58 467.41 C-526.84 465.96 -526.11 464.5 -525.37 463.04 C-516.14 444.65 -504.99 427.61 -492.49 411.27 C-492.03 410.66 -491.56 410.05 -491.08 409.42 C-486.11 402.94 -481.05 396.57 -475.54 390.53 C-474.36 389.23 -473.19 387.92 -472.05 386.59 C-467.15 380.89 -461.94 375.53 -456.62 370.21 C-455.77 369.35 -454.93 368.49 -454.05 367.61 C-449.47 363.02 -444.83 358.82 -439.64 354.92 C-437.5 353.28 -435.5 351.55 -433.49 349.76 C-429.37 346.11 -425.05 342.79 -420.62 339.52 C-419.8 338.92 -418.99 338.32 -418.14 337.7 C-410.58 332.2 -402.72 327.28 -394.66 322.55 C-393.14 321.66 -391.63 320.74 -390.13 319.82 C-384.12 316.13 -377.99 312.92 -371.62 309.9 C-370.13 309.19 -370.13 309.19 -368.61 308.47 C-359.76 304.31 -350.78 300.56 -341.63 297.09 C-339.78 296.38 -337.93 295.65 -336.09 294.92 C-314.31 286.59 -290.47 281.55 -267.37 278.59 C-265.98 278.41 -265.98 278.41 -264.55 278.22 C-250.66 276.56 -236.75 276.1 -222.77 276.14 C-220.5 276.15 -218.23 276.14 -215.96 276.14 C-149.46 276.1 -78.29 295.58 -27.31 339.9 C-24.85 342.49 -24.85 342.49 -22.49 342.27 C-22.49 341.59 -22.49 340.9 -22.49 340.19 C-22.46 299.49 -22.4 258.79 -22.32 218.09 C-22.31 213.2 -22.3 208.32 -22.29 203.43 C-22.29 202.46 -22.28 201.49 -22.28 200.48 C-22.25 184.73 -22.23 168.98 -22.22 153.22 C-22.21 137.06 -22.18 120.9 -22.14 104.73 C-22.11 94.76 -22.1 84.78 -22.1 74.81 C-22.1 67.97 -22.09 61.13 -22.06 54.29 C-22.05 50.34 -22.04 46.4 -22.05 42.45 C-22.06 38.84 -22.05 35.22 -22.02 31.61 C-22.01 29.68 -22.03 27.76 -22.04 25.84 C-21.96 17.96 -21.08 12.35 -15.71 6.25 C-15.15 5.8 -14.58 5.36 -13.99 4.9 C-13.43 4.44 -12.86 3.98 -12.28 3.5 C-8.08 0.61 -5.14 0.02 0 0 Z M-315.93 475.89 C-317.78 477.53 -319.7 479.08 -321.62 480.65 C-342.05 498.7 -356.95 523.88 -368.49 548.27 C-368.88 549.07 -369.26 549.86 -369.66 550.68 C-372.97 557.7 -375.56 564.9 -377.98 572.26 C-378.62 574.21 -379.27 576.15 -379.92 578.09 C-383.34 588.37 -386.13 598.68 -388.06 609.34 C-388.29 610.59 -388.51 611.83 -388.75 613.12 C-388.86 613.78 -388.98 614.44 -389.1 615.12 C-389.38 616.64 -389.68 618.16 -389.99 619.68 C-391.57 627.61 -392.16 635.53 -392.62 643.59 C-392.66 644.29 -392.7 645 -392.75 645.73 C-394.58 677.18 -394.03 709.35 -387.49 740.27 C-387.28 741.3 -387.06 742.33 -386.84 743.39 C-380.4 773.28 -369.88 803.5 -351.49 828.27 C-350.89 829.13 -350.29 829.99 -349.67 830.87 C-321.72 870.34 -281.46 897.8 -233.49 906.27 C-232.13 906.57 -232.13 906.57 -230.73 906.86 C-186.9 915.64 -138.88 903.94 -101.57 880.33 C-84.92 869.22 -69.65 856.22 -57.49 840.27 C-57.07 839.73 -56.65 839.18 -56.22 838.62 C-49.03 829.3 -42.99 819.68 -37.49 809.27 C-36.95 808.27 -36.41 807.27 -35.85 806.23 C-32.79 800.37 -30.23 794.36 -27.81 788.21 C-27.52 787.49 -27.24 786.77 -26.94 786.03 C-23.32 776.62 -21.05 767.79 -21.06 757.68 C-21.04 756.17 -21.04 756.17 -21.03 754.63 C-21 751.29 -20.99 747.95 -20.98 744.61 C-20.96 742.2 -20.94 739.79 -20.92 737.38 C-20.87 730.18 -20.84 722.97 -20.82 715.77 C-20.81 712.37 -20.8 708.97 -20.78 705.56 C-20.74 694.24 -20.7 682.91 -20.68 671.59 C-20.67 668.65 -20.67 665.72 -20.66 662.79 C-20.66 662.07 -20.66 661.34 -20.66 660.59 C-20.64 648.79 -20.57 637 -20.48 625.21 C-20.39 613.07 -20.35 600.92 -20.34 588.78 C-20.33 581.98 -20.31 575.18 -20.24 568.37 C-20.18 561.97 -20.17 555.57 -20.2 549.16 C-20.2 546.82 -20.18 544.48 -20.14 542.15 C-19.92 527.6 -21.39 517.99 -31.14 506.83 C-33.13 504.54 -34.95 502.12 -36.81 499.71 C-68.41 462.16 -109.59 436.71 -158.49 429.27 C-159.16 429.17 -159.82 429.07 -160.51 428.96 C-217.63 420.32 -273.23 437.83 -315.93 475.89 Z " fill="#000000" transform="translate(3408.494674682617,26.725845336914063)"></path>
<path d="M0 0 C14.84 13.05 29.57 26.73 41.62 42.42 C42.47 43.47 43.32 44.52 44.17 45.57 C56.19 60.38 66.08 76.4 75.31 93.07 C76.43 95.09 77.58 97.1 78.73 99.1 C117.22 167.98 129.84 252.13 127.24 329.92 C127.2 331.48 127.2 331.48 127.15 333.07 C126.85 341.06 125.77 348.4 124.62 356.42 C-48.3 356.42 -221.22 356.42 -399.38 356.42 C-399.38 363.55 -398.68 369.46 -397.32 376.36 C-397.1 377.5 -396.87 378.63 -396.65 379.8 C-388.73 418.97 -374.38 458.17 -350.38 490.42 C-349.4 491.75 -349.4 491.75 -348.4 493.1 C-339.45 504.72 -329.18 515.7 -317.38 524.42 C-315.89 525.53 -315.89 525.53 -314.37 526.65 C-302.24 535.32 -289.57 542.48 -275.54 547.63 C-273.13 548.52 -270.73 549.44 -268.32 550.36 C-251.25 556.81 -233.65 562.81 -215.38 564.42 C-214.46 564.51 -213.53 564.6 -212.58 564.69 C-156.26 569.87 -98.93 564.68 -44.78 548.14 C-42.34 547.41 -39.89 546.73 -37.42 546.07 C-23.61 542.32 -10.23 537.55 3.21 532.65 C7.36 531.16 11.53 529.74 15.7 528.33 C37.72 520.86 58.68 510.98 79.42 500.52 C85.81 497.3 92.27 494.24 98.74 491.19 C106.09 487.71 113.33 484.07 120.62 480.42 C120.62 532.23 120.62 584.04 120.62 637.42 C92.83 650.16 92.83 650.16 82.62 654.24 C81.48 654.69 80.34 655.15 79.17 655.62 C75.99 656.9 72.81 658.16 69.62 659.42 C68.85 659.73 68.08 660.04 67.29 660.36 C57.37 664.33 47.25 667.47 37.02 670.53 C31.99 672.04 27.04 673.61 22.14 675.47 C16.09 677.72 9.92 679.12 3.62 680.49 C-2.68 681.88 -8.96 683.27 -15.17 685.02 C-19.68 686.27 -24.13 687.17 -28.76 687.86 C-36.43 689.07 -44.06 690.47 -51.69 691.98 C-63.45 694.27 -75.29 695.85 -87.2 697.17 C-89.39 697.42 -91.57 697.67 -93.76 697.92 C-98.63 698.48 -103.5 698.96 -108.38 699.42 C-109.34 699.52 -110.31 699.61 -111.3 699.7 C-132.21 701.63 -153.02 701.7 -173.99 701.62 C-177.55 701.61 -181.11 701.61 -184.66 701.61 C-188.12 701.61 -191.58 701.6 -195.04 701.6 C-196.68 701.59 -198.31 701.59 -199.95 701.59 C-202.22 701.59 -204.49 701.58 -206.76 701.57 C-208.04 701.57 -209.32 701.56 -210.65 701.56 C-214.63 701.42 -218.44 700.96 -222.38 700.42 C-223.99 700.34 -225.6 700.27 -227.21 700.25 C-262.18 699.41 -297.1 691.95 -330.38 681.42 C-331.9 680.96 -333.42 680.5 -334.94 680.04 C-374.58 667.7 -411.3 646.92 -442.68 619.88 C-444.42 618.39 -446.17 616.91 -447.93 615.44 C-458.27 606.74 -467.78 597.7 -476.22 587.08 C-478.26 584.57 -480.41 582.22 -482.63 579.86 C-493.44 567.94 -502.08 554.19 -510.23 540.37 C-511.21 538.71 -512.22 537.07 -513.23 535.44 C-559.25 460.08 -570.38 362.9 -562.38 276.42 C-562.24 274.73 -562.24 274.73 -562.09 273 C-560.47 254.21 -557.39 235.84 -553.38 217.42 C-553 215.68 -553 215.68 -552.62 213.91 C-546.46 186.27 -537.67 158.75 -525.63 133.09 C-524.32 130.3 -523.05 127.5 -521.77 124.69 C-512.79 105.18 -501.98 86.81 -489.38 69.42 C-488.9 68.76 -488.43 68.1 -487.93 67.42 C-480.86 57.68 -473.34 48.44 -465.38 39.42 C-464.63 38.57 -463.89 37.71 -463.12 36.82 C-454.13 26.62 -444.61 16.91 -433.93 8.48 C-431.45 6.48 -429.14 4.36 -426.82 2.17 C-401.39 -20.88 -368.96 -37.8 -337.38 -50.58 C-336.61 -50.89 -335.84 -51.21 -335.05 -51.53 C-319.3 -57.94 -302.81 -62.28 -286.38 -66.58 C-285.47 -66.81 -284.57 -67.05 -283.63 -67.3 C-193.83 -90.13 -87.19 -68.12 0 0 Z M-332.38 109.42 C-333.75 110.7 -333.75 110.7 -335.14 112 C-346.49 122.83 -355.74 135.75 -363.38 149.42 C-363.82 150.22 -364.27 151.01 -364.72 151.82 C-375.76 171.77 -384.44 192.6 -390.81 214.49 C-391.37 216.38 -391.95 218.26 -392.54 220.13 C-393.3 223.11 -393.45 225.39 -393.38 228.42 C-385.29 229.45 -377.29 229.57 -369.14 229.56 C-367.71 229.56 -366.29 229.56 -364.86 229.56 C-360.97 229.57 -357.08 229.57 -353.18 229.57 C-348.97 229.57 -344.77 229.57 -340.56 229.58 C-332.33 229.59 -324.09 229.59 -315.86 229.59 C-309.17 229.59 -302.49 229.59 -295.8 229.6 C-276.84 229.61 -257.87 229.61 -238.91 229.61 C-237.38 229.61 -237.38 229.61 -235.82 229.61 C-234.8 229.61 -233.77 229.61 -232.72 229.61 C-216.12 229.61 -199.53 229.62 -182.93 229.63 C-165.89 229.65 -148.85 229.65 -131.8 229.65 C-122.24 229.65 -112.67 229.66 -103.1 229.67 C-94.96 229.67 -86.82 229.68 -78.68 229.67 C-74.53 229.67 -70.38 229.67 -66.22 229.68 C-62.42 229.68 -58.62 229.68 -54.83 229.67 C-53.45 229.67 -52.07 229.67 -50.69 229.68 C-48.83 229.69 -46.96 229.68 -45.09 229.67 C-43.54 229.67 -43.54 229.67 -41.95 229.67 C-39.14 229.6 -39.14 229.6 -36.38 227.42 C-43.14 189.49 -55.62 149.99 -81.38 120.42 C-82.19 119.5 -82.99 118.57 -83.82 117.62 C-112.52 85.33 -154.18 68.65 -196.82 65.57 C-246.73 62.74 -295.89 73.75 -332.38 109.42 Z " fill="#000000" transform="translate(4224.380859375,390.576171875)"></path>
<path d="M0 0 C1.18 -0.01 2.36 -0.01 3.58 -0.02 C4.87 -0.02 6.16 -0.02 7.49 -0.02 C8.87 -0.03 10.24 -0.03 11.62 -0.04 C15.36 -0.05 19.1 -0.06 22.83 -0.06 C25.17 -0.06 27.51 -0.07 29.85 -0.07 C37.16 -0.08 44.48 -0.09 51.8 -0.1 C60.24 -0.1 68.67 -0.12 77.11 -0.15 C83.64 -0.17 90.17 -0.18 96.7 -0.18 C100.59 -0.18 104.49 -0.19 108.38 -0.21 C112.05 -0.22 115.72 -0.23 119.39 -0.22 C121.36 -0.22 123.34 -0.23 125.32 -0.24 C133.29 -0.21 139.64 0.13 145.97 5.45 C146.71 6.34 147.45 7.23 148.22 8.14 C148.92 8.96 149.61 9.78 150.33 10.62 C152.96 15.51 152.79 19.62 152.76 25.08 C152.77 26.19 152.78 27.3 152.79 28.43 C152.82 32.14 152.82 35.84 152.82 39.54 C152.83 42.19 152.85 44.83 152.87 47.48 C152.91 53.93 152.93 60.39 152.94 66.84 C152.95 74.46 152.99 82.09 153.03 89.72 C153.11 107.22 153.16 124.72 153.2 142.22 C153.22 149.53 153.24 156.84 153.27 164.16 C153.38 198.76 153.44 233.36 153.48 267.97 C153.5 283.78 153.52 299.6 153.55 315.41 C153.56 323.25 153.57 331.1 153.59 338.94 C153.59 339.72 153.59 340.5 153.59 341.31 C153.62 359.61 153.64 377.92 153.67 396.22 C153.67 397.01 153.67 397.81 153.67 398.62 C153.69 415.6 153.72 432.58 153.74 449.56 C153.75 457.73 153.76 465.89 153.77 474.05 C153.77 474.86 153.77 475.67 153.78 476.5 C153.8 494.98 153.83 513.45 153.85 531.93 C153.86 533.1 153.86 533.1 153.86 534.29 C153.87 542.07 153.88 549.84 153.89 557.62 C153.92 574.15 153.94 590.68 153.96 607.21 C153.98 619.19 153.99 631.17 154.01 643.15 C154.02 649.6 154.03 656.05 154.04 662.5 C154.06 686.04 154.13 709.56 154.64 733.09 C154.66 733.97 154.68 734.85 154.69 735.75 C154.65 759.46 154.65 759.46 160.22 782.14 C160.9 785.38 161.51 788.62 162.08 791.88 C162.77 795.93 162.77 795.93 165.22 799.14 C166.06 802.1 166.69 805.09 167.34 808.1 C168.25 811.25 169.46 813.39 171.22 816.14 C171.87 817.32 172.5 818.51 173.13 819.71 C178.41 829.57 184.09 839.31 193.02 846.34 C193.74 846.94 194.47 847.53 195.22 848.14 C195.22 848.8 195.22 849.46 195.22 850.14 C195.8 850.4 196.39 850.67 196.99 850.94 C199.32 852.2 200.97 853.59 202.91 855.39 C207.07 859.12 211.49 862.19 216.22 865.14 C216.94 865.62 217.66 866.1 218.4 866.6 C222.31 868.74 226.39 870.13 230.59 871.58 C231.49 871.88 232.38 872.19 233.29 872.51 C257.29 880.65 282.95 884.22 308.22 880.14 C310.53 880.07 312.84 880 315.16 879.95 C324.03 879.57 332.7 877.96 341.41 876.33 C342.42 876.14 342.42 876.14 343.46 875.95 C352.88 874.2 362.04 871.9 371.22 869.14 C373.55 868.47 375.89 867.81 378.22 867.14 C389.43 863.7 400.81 859.77 411.11 854.12 C413.48 853.02 415.63 852.48 418.22 852.14 C419.22 853.14 419.22 853.14 419.34 855.82 C419.34 857.03 419.34 858.24 419.34 859.49 C419.34 860.49 419.34 860.49 419.34 861.52 C419.34 863.78 419.34 866.05 419.33 868.31 C419.33 869.92 419.33 871.54 419.33 873.16 C419.33 877.56 419.33 881.96 419.32 886.36 C419.32 890.95 419.31 895.55 419.31 900.14 C419.31 908.84 419.3 917.55 419.29 926.26 C419.28 936.16 419.28 946.07 419.27 955.98 C419.26 976.37 419.24 996.75 419.22 1017.14 C417.97 1017.79 416.72 1018.43 415.46 1019.07 C414.42 1019.6 414.42 1019.6 413.35 1020.15 C410.13 1021.64 406.85 1022.43 403.41 1023.2 C402 1023.53 400.6 1023.87 399.2 1024.2 C398.52 1024.36 397.84 1024.52 397.14 1024.68 C394.5 1025.31 391.89 1026.03 389.28 1026.77 C385.9 1027.71 382.53 1028.53 379.09 1029.27 C375.46 1029.72 375.46 1029.72 374.22 1031.14 C372.08 1031.38 369.95 1031.61 367.81 1031.83 C362.71 1032.44 357.68 1033.46 352.73 1034.83 C344.82 1037.02 336.89 1038.08 328.76 1039.05 C327.81 1039.16 326.87 1039.28 325.9 1039.39 C325.07 1039.49 324.24 1039.59 323.39 1039.69 C320.6 1040.09 317.87 1040.59 315.1 1041.12 C309.23 1042.2 303.38 1042.8 297.42 1043.25 C296.31 1043.33 295.19 1043.42 294.04 1043.5 C281.64 1044.36 269.26 1044.44 256.83 1044.4 C252.96 1044.39 249.09 1044.4 245.21 1044.41 C226.88 1044.42 208.48 1044.2 190.57 1039.92 C187.48 1039.2 184.39 1038.61 181.27 1038.06 C173.06 1036.62 165.2 1034.56 157.22 1032.14 C156.02 1031.8 154.81 1031.46 153.57 1031.11 C151.04 1030.38 148.61 1029.6 146.16 1028.64 C143.9 1027.76 141.64 1026.95 139.34 1026.2 C134.19 1024.45 129.22 1022.27 124.22 1020.14 C123.07 1019.66 123.07 1019.66 121.9 1019.17 C112.35 1015.08 103.34 1009.98 94.59 1004.39 C94 1004.01 93.41 1003.64 92.8 1003.25 C89.98 1001.42 87.55 999.55 85.22 997.14 C83.64 996.27 83.64 996.27 82.03 995.39 C77.55 992.91 73.99 989.57 70.22 986.14 C68.95 985.06 67.68 983.97 66.41 982.89 C62.9 979.82 59.54 976.6 56.22 973.33 C55.48 972.61 55.48 972.61 54.72 971.87 C53.52 970.67 52.36 969.41 51.22 968.14 C51.22 967.48 51.22 966.82 51.22 966.14 C50.56 966.14 49.9 966.14 49.22 966.14 C47.7 964.52 47.7 964.52 45.84 962.14 C45.14 961.24 44.43 960.33 43.71 959.4 C38.82 953.02 33.99 946.61 29.22 940.14 C28.56 939.25 28.56 939.25 27.89 938.34 C25.03 934.43 22.56 930.38 20.22 926.14 C19.41 924.71 18.6 923.27 17.78 921.84 C16.93 920.31 16.07 918.79 15.22 917.27 C14.79 916.51 14.37 915.76 13.93 914.99 C11.39 910.45 9.13 905.88 7.08 901.1 C6.31 899.35 5.46 897.65 4.59 895.95 C3.18 893.06 2.22 890.2 1.22 887.14 C0.5 885.48 -0.21 883.82 -0.93 882.17 C-4.13 874.55 -6.41 866.99 -8.07 858.89 C-8.67 855.95 -8.67 855.95 -10.78 853.14 C-11.35 850.34 -11.85 847.58 -12.28 844.77 C-12.51 843.26 -12.75 841.75 -13 840.24 C-13.1 839.58 -13.2 838.91 -13.31 838.22 C-13.74 836.05 -13.74 836.05 -14.77 833.79 C-15.94 830.73 -16.36 827.91 -16.78 824.66 C-16.95 823.41 -17.11 822.17 -17.28 820.88 C-17.53 818.94 -17.53 818.94 -17.78 816.95 C-18.11 814.4 -18.44 811.84 -18.78 809.28 C-18.92 808.15 -19.07 807.02 -19.22 805.86 C-19.64 803.09 -20.15 800.43 -20.75 797.7 C-21.96 791.66 -22.47 785.63 -22.89 779.49 C-22.97 778.27 -23.06 777.05 -23.14 775.8 C-24.01 762.14 -24.06 748.49 -24.04 734.81 C-24.03 731 -24.04 727.19 -24.04 723.38 C-24.05 716.73 -24.05 710.08 -24.05 703.43 C-24.04 693.55 -24.04 683.66 -24.05 673.78 C-24.06 656.11 -24.06 638.45 -24.05 620.79 C-24.05 605.35 -24.05 589.91 -24.05 574.46 C-24.05 573.44 -24.05 572.41 -24.05 571.35 C-24.05 567.18 -24.05 563.01 -24.05 558.85 C-24.06 519.81 -24.05 480.78 -24.04 441.74 C-24.03 407.07 -24.03 372.4 -24.04 337.73 C-24.05 298.73 -24.06 259.74 -24.05 220.74 C-24.05 216.59 -24.05 212.43 -24.05 208.28 C-24.05 207.25 -24.05 206.23 -24.05 205.18 C-24.04 189.73 -24.05 174.28 -24.05 158.84 C-24.06 141.29 -24.06 123.74 -24.05 106.19 C-24.04 96.37 -24.04 86.55 -24.05 76.73 C-24.05 70.17 -24.05 63.62 -24.04 57.06 C-24.04 53.32 -24.03 49.58 -24.04 45.85 C-24.05 41.82 -24.04 37.8 -24.03 33.77 C-24.04 32.61 -24.04 31.45 -24.05 30.26 C-24.01 21.49 -23.75 13.05 -17.78 6.14 C-11.95 1.71 -7.32 0.02 0 0 Z " fill="#000000" transform="translate(4481.780090332031,31.85955810546875)"></path>
</svg>
